# xmcd
#
# Track frame offsets:
#	150
#	17277
#	31987
#	41443
#	56617
#	70597
#	86207
#	103919
#	116329
#	134489
#	152964
#	171475
#	185714
#	200621
#	217753
#	238883
#	255005
#	269507
#	285254
#	305622
#	326414
#	344272
#
# Disc length: 4776 seconds
#
# Revision: 1
# Processed by: cddbd v1.5.2PL0 Copyright (c) Steve Scherf et al.
# Submitted via: audiograbber 1.83.01
#
DISCID=3b12a616
DTITLE=Various Artist - Radioactive Rhythm and Top 40 - April 2013
DYEAR=2013
DGENRE=Pop
TTITLE0=Macklemore and Ryan Lewis Feat. Ray Dalton - Can't Hold Us
TTITLE1=New Kids On The Block - Remix (I Like The)
TTITLE2=Anna Kendrick - Cups
TTITLE3=Jadagrace - Run Dat Back
TTITLE4=Feed Me and Crystal Fighters - Love Is All I Got
TTITLE5=Avicii Vs. Nicky Romero - I Could Be The One
TTITLE6=Zedd Feat. Foxes - Clarity
TTITLE7=Bingo Players Feat. Far East Movement - Get Up (Rattle)
TTITLE8=will.i.am Feat. Justin Bieber - #thatPower
TTITLE9=Nikki Williams - Glowing
TTITLE10=Youngblood Hawke - We Come Running (Tiesto Remix)
TTITLE11=Inner Ninja Feat. David Miles - Classified
TTITLE12=Major Lazer Feat. Busy Signal, The Flexican and FS Green - Watch Out For
TTITLE12=This (Bumaye)
TTITLE13=Taylor Swift - 22
TTITLE14=Sean Kingston Feat. Chris Brown and Wiz Khalifa - Beat It
TTITLE15=Emeli Sande Feat. Kendrick Lamar - Next To Me (Remix)
TTITLE16=Jay Sean - Where You Are
TTITLE17=Demi Lovato - Heart Attack
TTITLE18=Labrinth Feat. Emeli Sandé - Beneath Your Beautiful
TTITLE19=Justin Timberlake - Mirrors
TTITLE20=Kat Dahlia - Gangsta
TTITLE21=Florida-Georgia Line Feat. Nelly - Cruise (Remix)
EXTD=
EXTT0=
EXTT1=
EXTT2=
EXTT3=
EXTT4=
EXTT5=
EXTT6=
EXTT7=
EXTT8=
EXTT9=
EXTT10=
EXTT11=
EXTT12=
EXTT13=
EXTT14=
EXTT15=
EXTT16=
EXTT17=
EXTT18=
EXTT19=
EXTT20=
EXTT21=
PLAYORDER=
